<?xml version="1.0" encoding="UTF-8" standalone="no"?>
<!DOCTYPE svg PUBLIC "-//W3C//DTD SVG 20010904//EN" "http://www.w3.org/TR/2001/REC-SVG-20010904/DTD/svg10.dtd">
<svg version="1.0" xmlns="http://www.w3.org/2000/svg" width="418.000000pt" height="418.000000pt" viewBox="0 0 418.000000 418.000000" preserveAspectRatio="xMidYMid meet">
<metadata>
Created by potrace 1.14, written by Peter Selinger 2001-2017
</metadata>
<g transform="translate(0.000000,418.000000) scale(0.100000,-0.100000)" fill="#000000" stroke="none">
<path d="M1175 3910 c-106 -9 -241 -34 -280 -52 -13 -6 -27 -18 -31 -27 -4 -9 -10 -173 -15 -366 -7 -335 -11 -694 -26 -2340 l-6 -741 31 -35 c18 -20 48 -41 70 -47 61 -18 772 -17 816 2 36 15 70 63 80 111 3 17 10 194 16 395 13 485 20 631 30 625 5 -3 51 -76 103 -163 52 -86 159 -263 237 -392 79 -129 188 -309 243 -400 54 -91 111 -178 126 -193 55 -60 58 -60 366 -53 388 10 454 14 495 35 45 22 73 74 65 121 -6 31 -105 214 -343 630 -67 117 -251 444 -327 580 -23 41 -61 108 -83 149 l-42 74 37 51 c48 66 121 153 201 240 64 69 184 241 228 328 31 61 94 220 145 366 39 109 42 126 46 253 6 154 -3 199 -66 334 -69 145 -185 266 -316 330 -115 55 -303 105 -620 163 -136 24 -154 25 -610 28 -259 1 -515 -2 -570 -6z m1428 -2392 c47 -84 151 -270 232 -413 81 -143 189 -334 240 -425 52 -91 97 -173 100 -182 9 -23 -18 -26 -249 -30 l-199 -3 -52 85 c-502 826 -577 951 -573 955 2 1 41 14 88 29 47 14 135 50 195 80 61 30 115 55 122 55 6 1 50 -68 96 -151z m-1002 -508 c-6 -184 -11 -368 -11 -407 l0 -73 -271 0 -270 0 7 443 c3 243 8 444 10 446 1 1 83 -2 181 -8 160 -10 187 -10 268 6 l90 18 3 -45 c2 -25 -1 -196 -7 -380z"/>
</g>
</svg>